<?xml version="1.0" encoding="utf-8"?>
<!-- Generator: Adobe Illustrator 20.1.0, SVG Export Plug-In . SVG Version: 6.00 Build 0)  -->
<svg version="1.1" id="Layer_1" xmlns="http://www.w3.org/2000/svg" xmlns:xlink="http://www.w3.org/1999/xlink" x="0px" y="0px"
	 viewBox="0 0 512 512" style="enable-background:new 0 0 512 512;" xml:space="preserve">
<style type="text/css">
	.st0{fill:#049E8F;}
	.st1{fill:#FFF5F5;}
</style>
<g>
	<ellipse class="st0" cx="256" cy="256" rx="255.9" ry="256"/>
</g>
<path class="st0" d="M256,0c-0.1,0-0.2,0-0.3,0v512c0.1,0,0.2,0,0.3,0c141.3,0,255.9-114.6,255.9-256S397.3,0,256,0L256,0z"/>
<path class="st1" d="M111.3,261.1l103.5,103.5c4.5,4.5,11.8,4.5,16.3,0l169.9-169.9c4.5-4.5,4.5-11.8,0-16.3l-30.9-30.9
	c-4.5-4.5-11.8-4.5-16.3,0L230.2,271c-4.5,4.5-11.8,4.5-16.3,0l-55.4-55.4c-4.4-4.4-11.6-4.5-16.1-0.2l-30.8,29.1
	C106.8,249,106.7,256.5,111.3,261.1L111.3,261.1z"/>
<path class="st1" d="M370.2,147.4c-4.5-4.5-11.8-4.5-16.3,0l-98.2,98.2v94.6l145.5-145.5c4.5-4.5,4.5-11.8,0-16.3L370.2,147.4z"/>
</svg>
