<?xml version="1.0" encoding="utf-8"?>
<!-- Generator: Adobe Illustrator 20.1.0, SVG Export Plug-In . SVG Version: 6.00 Build 0)  -->
<svg version="1.1" id="Layer_1" xmlns="http://www.w3.org/2000/svg" xmlns:xlink="http://www.w3.org/1999/xlink" x="0px" y="0px"
	 viewBox="0 0 512 512" style="enable-background:new 0 0 512 512;" xml:space="preserve">
<style type="text/css">
	.st0{fill:#891226;}
	.st1{fill:#FFF5F5;}
</style>
<g>
	<g>
		<ellipse class="st0" cx="256" cy="256" rx="255.9" ry="256"/>
	</g>
	<path class="st0" d="M256.3,0v512c141.2-0.1,255.7-114.7,255.7-256S397.5,0.1,256.3,0L256.3,0z"/>
</g>
<path class="st1" d="M372.1,182.8l-43.7-43.7c-2.1-2.1-5.6-2.1-7.8,0l-61.1,61.1c-2.1,2.1-5.6,2.1-7.8,0l-61.1-61.1
	c-2.1-2.1-5.6-2.1-7.8,0l-43.7,43.7c-2.1,2.1-2.1,5.6,0,7.8l61.1,61.1c2.1,2.1,2.1,5.6,0,7.8l-61.1,61.1c-2.1,2.1-2.1,5.6,0,7.8
	l43.7,43.7c2.1,2.1,5.6,2.1,7.8,0l61.1-61.1c2.1-2.1,5.6-2.1,7.8,0l61.1,61.1c2.1,2.1,5.6,2.1,7.8,0l43.7-43.7
	c2.1-2.1,2.1-5.6,0-7.8L311,259.5c-2.1-2.1-2.1-5.6,0-7.8l61.1-61.1C374.3,188.4,374.3,184.9,372.1,182.8z"/>
<path class="st1" d="M372.1,190.5c2.1-2.1,2.1-5.6,0-7.8l-43.7-43.7c-2.1-2.1-5.6-2.1-7.8,0l-61.1,61.1c-1,1-2.3,1.5-3.6,1.6v107.5
	c1.3,0.1,2.6,0.6,3.6,1.6l61.1,61.1c2.1,2.1,5.6,2.1,7.8,0l43.7-43.7c2.1-2.1,2.1-5.6,0-7.8L311,259.5c-2.1-2.1-2.1-5.6,0-7.8
	L372.1,190.5z"/>
</svg>
